# xmcd
#
# Track frame offsets: 
#        150
#        14742
#        30602
#        43090
#        59412
#        75037
#        90212
#        103540
#        117220
#        131075
#        146002
#        160025
#        171670
#        186145
#        199557
#        214860
#        229992
#        243537
#        258097
#        272602
#        287290
#        302697
#        317797
#
# Disc length: 4417 seconds
#
# Revision: 0
# Processed by: cddbd v1.5.2PL0 Copyright (c) Steve Scherf et al.
# Submitted via: ExactAudioCopy v1.0b1
#
DISCID=3b113f17
DTITLE=Bumble Bee Slim - Volume 1 (1931-1934)
DYEAR=1931
DGENRE=Blues
TTITLE0=Rough Rugged Road Blues
TTITLE1=No Woman No Nickel
TTITLE2=Stumbling Block Blues
TTITLE3=Chain Gang Bound
TTITLE4=Yo Yo String Blues
TTITLE5=Honey Bee Blues
TTITLE6=Greasy Greens
TTITLE7=I`m Waitin` On You
TTITLE8=B And O Blues
TTITLE9=Queen Bee Blues
TTITLE10=M And O Blues - Part I
TTITLE11=M And O Blues - Part II
TTITLE12=Someday Things Will Be Breaking My Way
TTITLE13=Baby So Long
TTITLE14=Lost Confidence Blues
TTITLE15=The New B And O Blues
TTITLE16=Wrecked Life Blues
TTITLE17=Runnin` Drunk Blues
TTITLE18=East St. Louis Blues
TTITLE19=Busy Devil
TTITLE20=Squalling Panther Blues
TTITLE21=Sail On, Little Girl, Sail On
TTITLE22=Dead And Gone Mother
EXTD=
EXTT0=
EXTT1=
EXTT2=
EXTT3=
EXTT4=
EXTT5=
EXTT6=
EXTT7=
EXTT8=
EXTT9=
EXTT10=
EXTT11=
EXTT12=
EXTT13=
EXTT14=
EXTT15=
EXTT16=
EXTT17=
EXTT18=
EXTT19=
EXTT20=
EXTT21=
EXTT22=
PLAYORDER=
